
<svg>
	<path 
		fill="#5d87a1" 
		stroke="none"
	    d="m234.2 250.8c-1.5726-1.5726-1.5153-3.3974 0.2088-6.6457 0.77484-1.4599 1.9438-5.2942 2.5978-8.5208 1.0128-4.9972 0.96511-6.0904-0.32186-7.3773-0.83096-0.83096-7.7375-5.2029-15.348-9.7154-9.2951-5.5115-14.265-9.0804-15.142-10.873-0.91101-1.8632-2.0821-2.6681-3.8819-2.6681-5.4563 0-11.294-9.3264-11.308-18.065-5e-3 -3.0096-0.51174-3.8252-3.2556-5.2369-1.7875-0.91966-4.5204-2.6905-6.0731-3.9352l-2.8232-2.2631-88.039-0.22091c-64.659-0.16224-88.408-0.52671-89.427-1.3724-0.97957-0.81297-1.3875-3.5937-1.3875-9.4577 0-9.0369 0.53268-10.137 6.3447-13.109 1.7354-0.88713 4.8225-3.1071 6.8602-4.9334s5.5254-4.2492 7.7504-5.3843c2.2693-1.1577 5.1405-3.7985 6.5396-6.0148 1.3718-2.173 3.8902-4.6729 5.5964-5.5552 2.5407-1.3138 2.9666-1.9978 2.353-3.7785-0.41212-1.1958-0.84817-4.1919-0.969-6.658-0.18676-3.8118-0.57606-4.5673-2.5975-5.0413-2.1402-0.50186-2.4073-1.1693-2.6732-6.6777-0.35717-7.3994 0.37566-8.1085 12.295-11.897 14.512-4.6125 40.563-3.6811 47.862 1.7113 2.6649 1.9686 3.2635 2.0292 8.6866 0.87832 3.2035-0.67982 7.4648-0.9283 9.4697-0.55218 5.0534 0.94803 17.049-2.2309 20.519-5.4375 5.8549-5.4115 10.304-8 13.752-8h3.4668l-0.81045-4.25c-1.3009-6.8218-0.95445-10.226 1.3732-13.495 2.7551-3.8692 2.7314-4.2551-0.26168-4.2551-3.0676 0-5.5567-3.4272-5.5567-7.6511 0-3.8814 1.2954-5.2624 9.3068-9.9212 8.2047-4.7713 12.511-9.0365 13.743-13.613 1.6972-6.303 23.745-24.714 33.876-28.289 2.7344-0.96477 9.804-1.3616 24.702-1.3868 11.479-0.0194 24.802-0.34116 29.606-0.71507 6.005-0.46739 9.65-0.30061 11.664 0.53371 3.623 1.5007 5.5654 5.6912 4.2463 9.1607-0.58348 1.5347-0.59019 3.1212-0.0175 4.1445 0.59863 1.0697 0.45236 3.5348-0.41223 6.9474-1.1585 4.5727-1.6704 5.2894-3.7777 5.2894-2.4166 0-2.4376-0.0839-2.4376-9.739 0-6.0662-0.40831-9.8957-1.0827-10.154-0.59549-0.22847-7.7955-5.5e-4 -16 0.50649s-21.217 0.82652-28.917 0.70996c-13.55-0.20512-14.173-0.12269-19.383 2.5667-2.9605 1.5282-7.4605 4.6736-10 6.9897-2.5395 2.3161-6.9719 6.1386-9.8498 8.4944-3.9317 3.2184-5.5106 5.3156-6.3508 8.4358-1.3116 4.8711-5.4292 8.8908-15.185 14.824-8.0091 4.8708-8.8431 5.8667-4.9134 5.8667 1.6151 0 3.5439 0.73184 4.2863 1.6263 2.0641 2.4871 1.6458 8.5107-0.83268 11.991-1.9268 2.706-2.112 3.9043-1.5814 10.234 0.69434 8.282-0.82668 11.149-5.9156 11.149-3.1289 0-11.082 4.9116-14.098 8.7067-1.0024 1.2613-2.8583 2.2933-4.1243 2.2933s-4.2148 0.675-6.5532 1.5c-2.3964 0.8455-7.681 1.5-12.111 1.5-4.323 0-9.8579 0.53438-12.3 1.1875-4.1503 1.11-4.6895 1.0155-8.2644-1.4487-5.1697-3.5637-10.804-4.6853-23.68-4.7143-10.883-0.0245-20.102 1.6097-25.85 4.5819-3.268 1.6899-3.6408 3.9902-0.79328 4.894 2.8085 0.89139 4.0456 3.6931 3.855 8.7308-0.08999 2.3792 0.39383 5.3674 1.0752 6.6404 1.8562 3.4684 0.50288 6.8014-4.1221 10.152-2.2814 1.6527-4.9812 4.3748-5.9995 6.0493s-3.2584 3.8056-4.978 4.736c-1.7196 0.93033-5.3213 3.6005-8.0038 5.9338-2.6825 2.3332-6.6662 5.1549-8.8526 6.2703-3.8301 1.954-3.9753 2.21-3.9753 7.0077v4.9797l84.75 0.0245c54.842 0.0158 86.338 0.39023 89.25 1.061 2.475 0.57009 5.4 1.8564 6.5 2.8586s3.498 2.5796 5.3288 3.5054c3.935 1.9899 6.1712 6.6396 6.1712 12.831 0 3.4532 0.56446 4.8701 2.75 6.9033 1.5125 1.4071 4.0177 2.8574 5.5671 3.223 1.5803 0.37289 3.5202 1.8897 4.4185 3.455 1.0391 1.8105 6.8596 5.9155 16.576 11.69 11.126 6.6129 15.278 9.6198 16.152 11.7 1.1225 2.6697 1.2534 2.7164 2.806 1.0008 1.1163-1.2336 1.3347-2.2641 0.69442-3.2767-1.7692-2.7978-0.95499-4.9542 2.7578-7.304l3.7226-2.356-0.18725-7.9086c-0.10299-4.3497 0.13436-9.9336 0.52743-12.409 0.62619-3.9428 1.0243-4.5 3.2147-4.5 2.4964 0 2.5001 0.0145 2.5545 10 0.03 5.5 0.42011 11.649 0.86692 13.664 0.76792 3.4637 0.61517 3.792-2.7922 6-2.6901 1.7433-3.6077 3.0335-3.6169 5.0858-7e-3 1.5125 0.19066 2.75 0.43883 2.75s2.9347-0.64686 5.97-1.4375c3.0353-0.79061 9.9198-1.7469 15.299-2.125 5.778-0.40623 12.799-1.6594 17.158-3.0625 8.7003-2.8007 10.232-2.8869 14.263-0.80237 2.0879 1.0797 4.2531 1.3678 6.9082 0.91922 5.5874-0.94398 7.9515 0.073 7.9515 3.4206 0 4.1826-2.9568 6.1198-16.32 10.692-6.6988 2.2921-14.205 4.866-16.68 5.7198s-8.1 2.2755-12.5 3.1595c-4.4 0.88396-9.8 2.0488-12 2.5886-4.8983 1.2018-27.595 5.9272-28.469 5.9272-0.34712 0-1.1711-0.54-1.8311-1.2zm22.3-9.4383c8.0536-2.2335 17.582-4.3746 23.599-5.3032 3.0795-0.47519 7.3545-1.756 9.5-2.8461 2.1455-1.0902 6.7133-2.7682 10.151-3.729 3.4375-0.96079 6.25-2.0294 6.25-2.3746s-0.81315-1.1355-1.807-1.7562c-1.4153-0.88388-3.4204-0.60285-9.25 1.2965-4.7155 1.5363-11.657 2.7536-18.943 3.3219-11.012 0.85886-18.769 2.7899-25.788 6.4192-1.7122 0.88543-3.998 1.6099-5.0795 1.6099-2.1912 0-3.0463 1.5793-2.3365 4.3153 0.52185 2.0115 3.8458 1.7802 13.704-0.95363zm197.99 9.4585c-0.27653-0.72608-0.38701-57.345-0.24553-125.82l0.25725-124.5h5v251l-2.2545 0.32014c-1.24 0.17607-2.4807-0.27393-2.7572-1zm-141.73-11.32c-0.26285-1.375-0.0903-2.5 0.38342-2.5 0.47373 0 0.86133 1.125 0.86133 2.5s-0.17254 2.5-0.38342 2.5c-0.21089 0-0.59848-1.125-0.86133-2.5zm3.3237 0.25c-0.0812-2.8296 1.3028-3.7176 2.3377-1.5 0.46666 1 0.7 1 1.1667 0 1.0287-2.2044 2.4172-1.3372 2.4014 1.5-0.0108 1.9329-0.27194 2.345-0.87895 1.3868-0.72914-1.1509-0.9485-1.1509-1.4086 0s-0.69365 1.1509-1.5 0c-0.80634-1.1509-1.0395-1.1509-1.4972 0-0.29816 0.74973-0.57763 0.12565-0.62105-1.3868zm-68.079-56.45c-8.1288-2.9402-9.7296-5.3852-6.5232-9.963 1.4615-2.0866 1.516-2.0893 5.25-0.25957 6.2409 3.0582 11.408 3.4483 14.299 1.0795 2.1956-1.799 2.3053-2.1937 0.97432-3.5034-0.825-0.81181-4.5252-2.3974-8.2226-3.5235-10.854-3.3057-13.777-6.2186-13.777-13.726 0-8.7045 5.4454-12.828 17-12.874 12.113-0.0477 16.777 3.2909 12.592 9.0135-1.2827 1.7542-1.7358 1.8068-5.0976 0.59113-4.3498-1.5729-10.283-1.7457-11.688-0.34043-2.1807 2.1807-0.25814 4.5333 5.1938 6.3554 13.201 4.412 16 6.9224 16 14.351 0 8.7114-6.4335 13.5-18 13.399-3.575-0.0313-7.175-0.30114-8-0.59955zm41.75 0.0111c-1.5795-0.41272-1.75-2.1018-1.75-17.334v-16.877l-11.5-0.59981-0.31037-3.75-0.31036-3.75h17.592c19.061 0 19.468 0.12363 18.118 5.5022-0.58112 2.3154-1.0636 2.4978-6.6078 2.4978h-5.981v16.893c0 14.482-0.22578 16.98-1.5818 17.5-1.7332 0.6651-4.9398 0.63067-7.6682-0.0823zm19 0c-0.9625-0.25152-1.75-0.58567-1.75-0.74254 0-0.15686 3.7446-9.4614 8.3212-20.677l8.3212-20.391 11.052-0.5907 8.1526 20.019c4.4839 11.011 8.1526 20.433 8.1526 20.938 0 2.3572-8.0689 2.9215-10.272 0.71839-0.77816-0.77816-1.9899-2.8032-2.6928-4.5-1.2661-3.0566-1.3469-3.0852-8.7309-3.0852h-7.4529l-1.6757 3.9452c-1.9879 4.6801-5.3322 5.9579-11.426 4.3654zm23.932-18.061c-1.1402-3.622-3.5963-9.7222-3.6385-9.037-0.0241 0.39214-0.93732 2.9796-2.0293 5.75l-1.9854 5.037h4.102c3.4499 0 4.0145-0.27821 3.5511-1.75zm28.068 18.061c-1.5795-0.41275-1.75-2.1019-1.75-17.334v-16.877l-11.5-0.59981-0.31037-3.75-0.31036-3.75h17.592c19.061 0 19.468 0.12363 18.118 5.5022-0.58112 2.3154-1.0636 2.4978-6.6078 2.4978h-5.981v16.893c0 14.482-0.22578 16.98-1.5818 17.5-1.7332 0.6651-4.9398 0.63067-7.6682-0.0823zm27.25-20.782v-21.528h13.031c14.109 0 14.862 0.30561 13.557 5.5022-0.59921 2.3875-0.95993 2.4978-8.1682 2.4978h-7.5413l0.31036 3.75 0.31037 3.75 11.615 0.60323-0.61458 7.3968-11.5 0.59981v9.8193l16.5 0.58088v8l-27.5 0.55644zm283.28 17.818c-9.4587-3.3493-12.495-13.232-5.9716-19.439l3.3046-3.1443-2.8046-2.8045c-4.3208-4.3208-3.5466-9.9884 2.0034-14.666l2.6196-2.208-2.0888-2.292c-3.4677-3.805-4.5482-6.781-4.6019-12.674-0.0862-9.4647 4.7809-15.709 14.492-18.593 6.1596-1.8292 9.5685-1.896 18.51-0.36269 5.9321 1.0172 7.2325 0.94538 10.441-0.57693 4.0577-1.9255 6.909-1.1567 8.7975 2.3721 1.7565 3.2821 1.1416 5.0186-2.37 6.6932l-3.3929 1.618 1.4891 3.5638c3.0468 7.2919-0.61674 16.269-8.5403 20.927-4.2586 2.5034-5.654 2.7611-16.092 2.9712-11.912 0.23982-14.55 1.2182-11.503 4.2659 1.1191 1.1195 4.9485 1.6375 15.214 2.0582 15.342 0.6287 18.939 1.7992 22.259 7.2444 3.9478 6.4747 1.2942 16.965-5.4449 21.525-1.8887 1.278-5.5669 2.9655-8.1738 3.75-6.2344 1.8763-22.578 1.7444-28.146-0.22714zm25.594-11.09c3.5042-2.6042 3.946-6.5715 0.96438-8.6599-3.0489-2.1355-15.795-2.1859-19.87-0.0785-2.9746 1.5382-4.7447 5.4109-3.4389 7.5237 2.6249 4.2472 17.198 5.0394 22.344 1.2147zm-4.4186-38.672c5.6873-2.3763 7.2676-8.1293 3.5362-12.873-2.5212-3.2052-6.9123-4.2217-11.581-2.6808-7.2153 2.3813-7.8844 12.548-1.0223 15.535 3.9876 1.7356 4.9541 1.7376 9.0673 0.019zm-196.2 25.764c-2.8954-0.62713-2.91 0.11915 0.73789-37.778 2.0295-21.084 3.3807-31.186 4.2446-31.735 1.4388-0.91328 9.2461-1.0823 12.284-0.26594 2.0192 0.54265 7.7916 14.247 16.033 38.062l3.1597 9.1313 8.3346-22.499c4.584-12.374 9.0041-23.168 9.8223-23.987 1.1-1.1 3.1254-1.3834 7.7726-1.0875 3.4567 0.22011 6.466 0.60497 6.6873 0.85525 0.71904 0.81326 6.7136 67.083 6.1505 67.994-0.92676 1.4995-7.2231 2.2198-11.198 1.281l-3.7782-0.89239-1.6281-18.758c-0.89546-10.317-1.8103-18.941-2.0329-19.163-0.22266-0.22266-3.2686 7.335-6.7687 16.795-3.5001 9.4598-7.0588 17.762-7.9082 18.45-1.829 1.4805-7.5523 1.6467-10.082 0.29279-1.1045-0.5911-4.186-7.38-8.0567-17.75-6.667-17.861-8.0157-20.504-8.0356-15.743-0.0193 4.622-2.8707 35.666-3.3168 36.112-0.68223 0.68224-10.049 1.1994-12.421 0.68574zm86-0.3794c-2.249-0.90398-2.25-0.91587-2.25-25.83 0-27.873-0.49737-26.139 7.5-26.139 7.9973 0 7.5-1.7326 7.5 26.132v24.918l-2.5651 0.97525c-3.1139 1.1839-7.1556"
	/>
</svg>